<?xml version="1.0" encoding="utf-8"?>
<!-- Generator: Adobe Illustrator 19.2.1, SVG Export Plug-In . SVG Version: 6.00 Build 0)  -->
<svg version="1.1" id="layer" xmlns="http://www.w3.org/2000/svg" xmlns:xlink="http://www.w3.org/1999/xlink" x="0px" y="0px"
	 viewBox="0 0 652 652" style="enable-background:new 0 0 652 652;" xml:space="preserve">
<polygon points="132,280.2 106.3,339.8 79.9,280.2 78,280.2 51.8,339.8 26.6,280.2 15.8,280.2 50.9,362.3 52.8,362.3 79.1,303.5 
	105.3,362.3 107.3,362.3 143,280.2 "/>
<g>
	<path d="M212.7,335.1l8.9,4.7c-2.9,5.7-6.3,10.4-10.1,13.9c-3.8,3.5-8.1,6.2-12.9,8c-4.8,1.8-10.2,2.8-16.2,2.8
		c-13.4,0-23.9-4.4-31.4-13.2c-7.6-8.8-11.3-18.7-11.3-29.8c0-10.4,3.2-19.7,9.6-27.9c8.1-10.4,19-15.5,32.6-15.5
		c14,0,25.2,5.3,33.6,15.9c5.9,7.5,9,16.9,9.1,28.1h-73.9c0.2,9.5,3.3,17.4,9.1,23.5c5.9,6.1,13.2,9.2,21.8,9.2
		c4.2,0,8.3-0.7,12.2-2.2c4-1.5,7.3-3.4,10.1-5.8C206.5,344.3,209.5,340.5,212.7,335.1 M212.7,313c-1.4-5.6-3.5-10.1-6.2-13.5
		c-2.7-3.4-6.3-6.1-10.7-8.2c-4.4-2.1-9.1-3.1-14-3.1c-8.1,0-15,2.6-20.8,7.8c-4.2,3.8-7.4,9.4-9.6,17H212.7z"/>
	<path d="M232.9,362.3V248.5h10.6v45.8c4.4-5.4,9.4-9.5,14.9-12.2c5.5-2.7,11.5-4,18-4c11.6,0,21.5,4.2,29.8,12.6
		c8.2,8.4,12.3,18.7,12.3,30.7c0,11.9-4.1,22-12.4,30.4c-8.3,8.4-18.3,12.6-29.9,12.6c-6.7,0-12.7-1.4-18.2-4.3
		c-5.4-2.9-10.2-7.2-14.4-12.9v15.1H232.9z M275.2,354.3c5.9,0,11.3-1.4,16.3-4.3c5-2.9,8.9-7,11.9-12.2c2.9-5.2,4.4-10.8,4.4-16.6
		c0-5.8-1.5-11.4-4.4-16.7c-3-5.3-6.9-9.4-11.9-12.3c-5-2.9-10.3-4.4-16-4.4c-5.8,0-11.3,1.5-16.5,4.4c-5.2,2.9-9.2,6.9-12,11.9
		c-2.8,5-4.2,10.6-4.2,16.8c0,9.5,3.1,17.5,9.4,23.9C258.4,351.1,266.1,354.3,275.2,354.3"/>
	<path d="M406.8,327.2h-66.2c1,5.8,3.5,10.5,7.7,13.9c4.1,3.4,9.4,5.2,15.9,5.2c7.7,0,14.3-2.7,19.9-8.1l17.4,8.2
		c-4.3,6.1-9.5,10.7-15.6,13.6c-6,2.9-13.2,4.4-21.5,4.4c-12.9,0-23.4-4.1-31.5-12.2c-8.1-8.1-12.2-18.3-12.2-30.5
		c0-12.5,4-22.9,12.1-31.2c8.1-8.3,18.2-12.4,30.4-12.4c12.9,0,23.5,4.1,31.6,12.4c8.1,8.3,12.2,19.2,12.2,32.8L406.8,327.2z
		 M386.2,311c-1.4-4.6-4-8.3-8.1-11.2c-4-2.9-8.7-4.3-14-4.3c-5.7,0-10.8,1.6-15.1,4.8c-2.7,2-5.2,5.6-7.6,10.6H386.2z"/>
	<path d="M472.3,248.5H493v113.9h-20.6v-8.7c-4,3.8-8.1,6.6-12.1,8.3c-4,1.7-8.4,2.5-13.2,2.5c-10.6,0-19.8-4.1-27.5-12.3
		c-7.7-8.2-11.6-18.5-11.6-30.7c0-12.7,3.7-23.1,11.2-31.2c7.5-8.1,16.6-12.2,27.3-12.2c4.9,0,9.6,0.9,13.9,2.8
		c4.3,1.9,8.3,4.7,12,8.4V248.5z M450.7,297.1c-6.4,0-11.7,2.3-15.9,6.8c-4.2,4.5-6.3,10.3-6.3,17.3c0,7.1,2.1,12.9,6.4,17.5
		c4.3,4.6,9.6,6.9,15.8,6.9c6.5,0,11.8-2.3,16.1-6.8c4.3-4.5,6.4-10.4,6.4-17.7c0-7.1-2.1-12.9-6.4-17.4
		C462.6,299.3,457.2,297.1,450.7,297.1"/>
	<rect x="499.7" y="280.2" width="20.6" height="82.1"/>
	<path d="M587.9,280.2h20.6v82.1h-20.6v-8.7c-4,3.8-8.1,6.6-12.1,8.3c-4,1.7-8.4,2.5-13.2,2.5c-10.6,0-19.8-4.1-27.5-12.3
		c-7.7-8.2-11.6-18.5-11.6-30.7c0-12.7,3.7-23.1,11.2-31.2c7.5-8.1,16.6-12.2,27.3-12.2c4.9,0,9.5,0.9,13.9,2.8
		c4.3,1.9,8.3,4.7,12,8.4V280.2z M566.2,297.1c-6.4,0-11.7,2.3-15.9,6.8c-4.2,4.5-6.3,10.3-6.3,17.3c0,7.1,2.1,12.9,6.4,17.5
		c4.3,4.6,9.6,6.9,15.8,6.9c6.5,0,11.8-2.3,16.1-6.8c4.3-4.5,6.4-10.4,6.4-17.7c0-7.1-2.1-12.9-6.4-17.4
		C578.1,299.3,572.7,297.1,566.2,297.1"/>
	<path d="M626.2,337.7c3.6,0,6.7,1.3,9.3,3.9c2.6,2.6,3.9,5.8,3.9,9.5c0,3.7-1.3,6.8-3.8,9.4c-2.6,2.6-5.6,3.9-9.2,3.9
		c-3.7,0-6.8-1.3-9.4-4c-2.6-2.6-3.9-5.9-3.9-9.6c0-3.6,1.3-6.7,3.8-9.3C619.5,339,622.6,337.7,626.2,337.7"/>
	<rect x="499.7" y="248.5" width="20.6" height="23.4"/>
	<polygon points="79.3,382.1 90.8,382.1 90.8,385.9 83.3,385.9 83.3,389.7 90.8,389.7 90.8,393.5 83.3,393.5 83.3,399 90.8,399 
		90.8,402.9 79.3,402.9 	"/>
	<polygon points="94.5,382.1 98.3,382.1 107.3,395.8 107.3,382.1 111.3,382.1 111.3,402.9 107.5,402.9 98.5,389.2 98.5,402.9 
		94.5,402.9 	"/>
	<path d="M135.5,385.5l-2.8,2.8c-1.8-1.9-3.9-2.8-6.2-2.8c-2.1,0-3.8,0.7-5.2,2c-1.4,1.4-2.1,3-2.1,5c0,2,0.7,3.7,2.2,5.1
		c1.4,1.4,3.2,2.1,5.4,2.1c1.4,0,2.5-0.3,3.5-0.9c1-0.6,1.7-1.5,2.3-2.7h-6.1v-3.7H137l0,0.9c0,1.8-0.5,3.6-1.4,5.2
		c-1,1.6-2.2,2.9-3.7,3.7c-1.5,0.9-3.3,1.3-5.3,1.3c-2.2,0-4.1-0.5-5.8-1.4c-1.7-0.9-3.1-2.3-4.1-4c-1-1.7-1.5-3.6-1.5-5.6
		c0-2.8,0.9-5.2,2.8-7.2c2.2-2.4,5-3.6,8.5-3.6c1.8,0,3.5,0.3,5.1,1C132.9,383.1,134.2,384.1,135.5,385.5"/>
	<path d="M147.1,382.1h4.1l8.1,20.8H155l-1.6-4.3h-8.6l-1.7,4.3H139L147.1,382.1z M149.1,387.6l-2.8,7.2h5.6L149.1,387.6z"/>
	<path d="M181.7,385.5l-2.8,2.8c-1.8-1.9-3.9-2.8-6.2-2.8c-2.1,0-3.8,0.7-5.2,2c-1.4,1.4-2.1,3-2.1,5c0,2,0.7,3.7,2.2,5.1
		c1.4,1.4,3.2,2.1,5.4,2.1c1.4,0,2.5-0.3,3.5-0.9c1-0.6,1.7-1.5,2.3-2.7h-6.1v-3.7h10.6l0,0.9c0,1.8-0.5,3.6-1.4,5.2
		c-1,1.6-2.2,2.9-3.7,3.7c-1.5,0.9-3.3,1.3-5.3,1.3c-2.2,0-4.1-0.5-5.8-1.4c-1.7-0.9-3.1-2.3-4.1-4c-1-1.7-1.5-3.6-1.5-5.6
		c0-2.8,0.9-5.2,2.8-7.2c2.2-2.4,5-3.6,8.5-3.6c1.8,0,3.5,0.3,5.1,1C179.1,383.1,180.4,384.1,181.7,385.5"/>
	<rect x="186.6" y="382.1" width="4" height="20.8"/>
	<polygon points="195,382.1 198.9,382.1 207.8,395.8 207.8,382.1 211.8,382.1 211.8,402.9 208,402.9 199,389.2 199,402.9 195,402.9 
			"/>
	<path d="M236,385.5l-2.8,2.8c-1.8-1.9-3.9-2.8-6.2-2.8c-2.1,0-3.8,0.7-5.2,2c-1.4,1.4-2.1,3-2.1,5c0,2,0.7,3.7,2.2,5.1
		c1.4,1.4,3.2,2.1,5.4,2.1c1.4,0,2.5-0.3,3.5-0.9c1-0.6,1.7-1.5,2.3-2.7h-6.1v-3.7h10.6l0,0.9c0,1.8-0.5,3.6-1.4,5.2
		c-1,1.6-2.2,2.9-3.7,3.7c-1.5,0.9-3.3,1.3-5.3,1.3c-2.2,0-4.1-0.5-5.8-1.4c-1.7-0.9-3.1-2.3-4.1-4c-1-1.7-1.5-3.6-1.5-5.6
		c0-2.8,0.9-5.2,2.8-7.2c2.2-2.4,5-3.6,8.5-3.6c1.8,0,3.5,0.3,5.1,1C233.4,383.1,234.7,384.1,236,385.5"/>
	<path d="M255.8,382.1h4.1l8.1,20.8h-4.2l-1.6-4.3h-8.6l-1.7,4.3h-4.2L255.8,382.1z M257.8,387.6l-2.8,7.2h5.6L257.8,387.6z"/>
	<path d="M270.9,382.1h4v13.5c0,1.2,0.1,2,0.3,2.5c0.2,0.5,0.5,0.9,1,1.2c0.5,0.3,1,0.4,1.7,0.4c0.7,0,1.3-0.2,1.8-0.5
		c0.5-0.3,0.9-0.7,1.1-1.2c0.2-0.5,0.3-1.4,0.3-2.8v-13h4v12.4c0,2.1-0.1,3.6-0.4,4.4c-0.2,0.8-0.7,1.6-1.4,2.4
		c-0.7,0.8-1.4,1.3-2.3,1.7c-0.9,0.4-1.9,0.5-3.1,0.5c-1.5,0-2.8-0.3-4-1c-1.1-0.7-1.9-1.6-2.4-2.6c-0.5-1-0.7-2.8-0.7-5.3V382.1z"
		/>
	<path d="M289.7,382.1h4.7c3.1,0,5.3,0.4,6.8,1.1c1.5,0.7,2.7,2,3.7,3.7c1,1.7,1.4,3.7,1.4,5.9c0,1.6-0.3,3.1-0.8,4.4
		c-0.5,1.3-1.3,2.5-2.2,3.4c-0.9,0.9-2,1.5-3.1,1.8c-1.1,0.3-3,0.5-5.7,0.5h-4.8V382.1z M293.7,385.9V399h1.9c1.8,0,3.2-0.2,4-0.6
		c0.8-0.4,1.5-1.1,2-2.1c0.5-1,0.8-2.2,0.8-3.6c0-2.2-0.6-3.9-1.9-5.1c-1.1-1.1-2.9-1.6-5.4-1.6H293.7z"/>
	<rect x="309.9" y="382.1" width="4" height="20.8"/>
	<polygon points="318.4,382.1 329.8,382.1 329.8,385.9 322.3,385.9 322.3,389.7 329.8,389.7 329.8,393.5 322.3,393.5 322.3,399 
		329.8,399 329.8,402.9 318.4,402.9 	"/>
	<polygon points="333.6,382.1 337.4,382.1 346.4,395.8 346.4,382.1 350.4,382.1 350.4,402.9 346.5,402.9 337.6,389.2 337.6,402.9 
		333.6,402.9 	"/>
	<path d="M374.5,385.7l-2.8,2.6c-1.9-2-4-3-6.4-3c-2,0-3.7,0.7-5.1,2c-1.4,1.4-2.1,3-2.1,5c0,1.4,0.3,2.6,0.9,3.7
		c0.6,1.1,1.5,1.9,2.6,2.5c1.1,0.6,2.3,0.9,3.7,0.9c1.2,0,2.2-0.2,3.2-0.6c1-0.4,2-1.2,3.2-2.3l2.7,2.8c-1.6,1.5-3,2.5-4.4,3.1
		c-1.4,0.6-3,0.9-4.7,0.9c-3.3,0-5.9-1-8-3.1c-2.1-2.1-3.1-4.7-3.1-7.9c0-2.1,0.5-3.9,1.4-5.5c0.9-1.6,2.3-2.9,4.1-3.9
		c1.8-1,3.7-1.5,5.7-1.5c1.7,0,3.4,0.4,5,1.1C371.9,383.3,373.3,384.4,374.5,385.7"/>
	<polygon points="378,382.1 389.5,382.1 389.5,385.9 382,385.9 382,389.7 389.5,389.7 389.5,393.5 382,393.5 382,399 389.5,399 
		389.5,402.9 378,402.9 	"/>
	<path d="M404.2,384.9l-3,2.6c-1-1.4-2.1-2.2-3.2-2.2c-0.5,0-1,0.1-1.3,0.4c-0.3,0.3-0.5,0.6-0.5,0.9c0,0.3,0.1,0.7,0.4,1
		c0.3,0.4,1.3,1.3,2.9,2.7c1.5,1.3,2.5,2.1,2.8,2.4c0.8,0.8,1.4,1.6,1.7,2.3c0.3,0.7,0.5,1.5,0.5,2.4c0,1.7-0.6,3.1-1.8,4.2
		c-1.2,1.1-2.7,1.7-4.7,1.7c-1.5,0-2.8-0.4-3.9-1.1c-1.1-0.7-2.1-1.9-2.9-3.4l3.4-2c1,1.8,2.2,2.8,3.5,2.8c0.7,0,1.3-0.2,1.7-0.6
		c0.5-0.4,0.7-0.9,0.7-1.4c0-0.5-0.2-0.9-0.5-1.4c-0.4-0.5-1.1-1.2-2.3-2.2c-2.3-1.9-3.8-3.3-4.4-4.3c-0.7-1-1-2-1-3
		c0-1.4,0.6-2.7,1.7-3.7c1.1-1,2.5-1.6,4.1-1.6c1,0,2,0.2,3,0.7C402.1,382.7,403.1,383.6,404.2,384.9"/>
	<polygon points="415.5,382.1 417.7,382.1 422,397.1 428,382.1 428.4,382.1 434.4,397.1 438.8,382.1 440.9,382.1 434.9,402.9 
		434.5,402.9 428.2,387.1 421.9,402.9 421.5,402.9 	"/>
	<rect x="444.5" y="382.1" width="2.1" height="20.8"/>
	<polygon points="449.3,384.1 449.3,382.1 460.8,382.1 460.8,384.1 456.1,384.1 456.1,402.9 454,402.9 454,384.1 	"/>
	<polygon points="463.8,382.1 465.9,382.1 465.9,390.8 476.6,390.8 476.6,382.1 478.7,382.1 478.7,402.9 476.6,402.9 476.6,392.8 
		465.9,392.8 465.9,402.9 463.8,402.9 	"/>
	<path d="M491.9,382.1h4.2c2.4,0,4,0.1,4.9,0.3c1.2,0.3,2.2,0.9,2.9,1.8c0.8,0.9,1.1,2.1,1.1,3.4c0,1.4-0.4,2.5-1.1,3.4
		c-0.7,0.9-1.8,1.5-3.1,1.8c-1,0.2-2.7,0.3-5.3,0.3H494v9.7h-2.1V382.1z M494,384.1v7.1l3.6,0c1.4,0,2.5-0.1,3.2-0.4
		c0.7-0.3,1.2-0.7,1.6-1.3c0.4-0.6,0.6-1.2,0.6-1.9c0-0.7-0.2-1.3-0.6-1.9c-0.4-0.6-0.9-1-1.5-1.2c-0.6-0.2-1.6-0.4-3.1-0.4H494z"/>
	<path d="M517.8,382.1l9.8,20.8h-2.3L522,396h-9l-3.3,6.9h-2.3l9.9-20.8H517.8z M517.5,386.5l-3.6,7.5h7.2L517.5,386.5z"/>
	<path d="M528.7,399l1.8-1.1c1.3,2.3,2.7,3.4,4.4,3.4c0.7,0,1.4-0.2,2-0.5c0.6-0.3,1.1-0.8,1.4-1.3c0.3-0.5,0.5-1.1,0.5-1.7
		c0-0.7-0.2-1.4-0.7-2.1c-0.7-0.9-1.9-2-3.6-3.3c-1.8-1.3-2.8-2.3-3.3-2.8c-0.7-1-1.1-2-1.1-3.2c0-0.9,0.2-1.7,0.7-2.5
		c0.4-0.7,1.1-1.3,1.8-1.8c0.8-0.4,1.7-0.6,2.6-0.6c1,0,1.9,0.2,2.8,0.7c0.9,0.5,1.8,1.4,2.7,2.7l-1.7,1.3c-0.8-1-1.5-1.7-2-2.1
		c-0.6-0.3-1.2-0.5-1.8-0.5c-0.8,0-1.5,0.3-2.1,0.8c-0.5,0.5-0.8,1.1-0.8,1.9c0,0.5,0.1,0.9,0.3,1.3c0.2,0.4,0.5,0.9,1,1.4
		c0.3,0.3,1.2,1,2.7,2.1c1.8,1.3,3.1,2.5,3.7,3.6c0.7,1,1,2.1,1,3.1c0,1.5-0.6,2.8-1.7,3.9c-1.2,1.1-2.6,1.7-4.2,1.7
		c-1.3,0-2.4-0.3-3.5-1C530.5,401.7,529.5,400.6,528.7,399"/>
	<path d="M543.2,399l1.8-1.1c1.3,2.3,2.7,3.4,4.4,3.4c0.7,0,1.4-0.2,2-0.5c0.6-0.3,1.1-0.8,1.4-1.3c0.3-0.5,0.5-1.1,0.5-1.7
		c0-0.7-0.2-1.4-0.7-2.1c-0.7-0.9-1.9-2-3.6-3.3c-1.8-1.3-2.8-2.3-3.3-2.8c-0.7-1-1.1-2-1.1-3.2c0-0.9,0.2-1.7,0.7-2.5
		c0.4-0.7,1.1-1.3,1.8-1.8c0.8-0.4,1.7-0.6,2.6-0.6c1,0,1.9,0.2,2.8,0.7c0.9,0.5,1.8,1.4,2.7,2.7l-1.7,1.3c-0.8-1-1.5-1.7-2-2.1
		c-0.6-0.3-1.2-0.5-1.8-0.5c-0.8,0-1.5,0.3-2.1,0.8c-0.5,0.5-0.8,1.1-0.8,1.9c0,0.5,0.1,0.9,0.3,1.3c0.2,0.4,0.5,0.9,1,1.4
		c0.3,0.3,1.2,1,2.7,2.1c1.8,1.3,3.1,2.5,3.7,3.6c0.7,1,1,2.1,1,3.1c0,1.5-0.6,2.8-1.7,3.9c-1.2,1.1-2.6,1.7-4.2,1.7
		c-1.3,0-2.4-0.3-3.5-1C545.1,401.7,544.1,400.6,543.2,399"/>
	<rect x="559.7" y="382.1" width="2.1" height="20.8"/>
	<path d="M576.6,381.5c3.2,0,5.8,1.1,8,3.2c2.1,2.1,3.2,4.7,3.2,7.8c0,3-1.1,5.6-3.2,7.8c-2.1,2.1-4.7,3.2-7.8,3.2
		c-3.1,0-5.7-1.1-7.9-3.2c-2.1-2.1-3.2-4.7-3.2-7.7c0-2,0.5-3.9,1.5-5.6c1-1.7,2.3-3,4-4C572.8,382,574.6,381.5,576.6,381.5
		 M576.7,383.6c-1.6,0-3,0.4-4.4,1.2c-1.4,0.8-2.5,1.9-3.3,3.2c-0.8,1.4-1.2,2.9-1.2,4.5c0,2.5,0.9,4.6,2.6,6.3
		c1.7,1.7,3.8,2.6,6.3,2.6c1.6,0,3.1-0.4,4.5-1.2c1.4-0.8,2.5-1.9,3.2-3.2c0.8-1.4,1.2-2.9,1.2-4.5c0-1.7-0.4-3.1-1.2-4.5
		c-0.8-1.3-1.9-2.4-3.3-3.2C579.7,384,578.2,383.6,576.7,383.6"/>
	<polygon points="592,402.9 592,382.1 592.4,382.1 606.4,398 606.4,382.1 608.5,382.1 608.5,402.9 608,402.9 594.2,387.1 
		594.2,402.9 	"/>
</g>
</svg>
